<?xml version="1.0" encoding="UTF-8"?>
<svg id="Calque_1" data-name="Calque 1" xmlns="http://www.w3.org/2000/svg" viewBox="0 0 965 580">
  <path d="M686.4,485.58c-3.88,0-7.11,1.3-9.7,3.88-2.59,2.59-3.88,5.82-3.88,9.7s1.36,7.19,4.1,9.92c2.73,2.73,5.96,4.1,9.7,4.1s6.96-1.36,9.7-4.1c2.73-2.73,4.1-5.96,4.1-9.7s-1.37-6.96-4.1-9.7c-2.74-2.73-6.04-4.09-9.92-4.09Z"/>
  <path d="M633.78,190.93c4.65-18.62,9.22-34.02,13.7-46.2,4.48-12.17,9.13-22.03,13.97-29.55,4.83-7.52,10.11-13.24,15.85-17.19,5.72-3.94,12.35-6.99,19.88-9.13,1.07-.71,2.86-2.06,5.37-4.03,2.5-1.97,4.74-4.11,6.71-6.45,1.96-2.32,3.4-4.57,4.3-6.72.89-2.15.45-3.76-1.34-4.83-27.94,0-54.89,5.37-80.85,16.12-25.97,10.74-48.81,24.9-68.5,42.44-19.7,17.55-35.46,37.25-47.28,59.09-11.82,21.85-17.73,43.88-17.73,66.08s5.91,38.6,17.73,51.31c11.82,12.72,27.04,19.43,45.67,20.15-13.62,31.52-28.21,58.38-43.79,80.59-15.58,22.2-32.15,40.29-49.7,54.26-17.55,13.97-36.09,24.18-55.6,30.62-19.53,6.45-39.85,9.67-60.98,9.67-23.64,0-41.55-5.56-53.72-16.65-12.18-11.11-18.27-27.59-18.27-49.43,0-25.78,10.74-48.89,32.24-69.3,21.49-20.41,53.9-34.74,97.24-42.98,1.79-.71,2.69-1.79,2.69-3.22s-.9-2.15-2.69-2.15c-26.86,4.66-50.23,11.91-70.11,21.76-19.87,9.85-36.45,20.87-49.69,33.04-13.26,12.18-23.1,25.07-29.55,38.68-6.45,13.61-9.67,26.5-9.67,38.68,0,22.57,7.07,39.3,21.22,50.23,14.14,10.92,34.83,16.38,62.05,16.38,23.64,0,47.28-3.85,70.92-11.55,23.64-7.71,46.38-19.53,68.23-35.46,21.84-15.94,42.52-36,62.05-60.17,18.91-23.43,36.22-51.01,51.94-82.69h29.22v190.84h33.36v-190.84h37.66v-3.82h-37.66v-22.4c0-32.72,4.77-56.32,14.3-70.78,9.49-14.39,25.12-21.78,46.9-22.16.1,0,5.41,0,5.51,0v-3.81c-.1,0-5.42,0-5.51,0-33.21.36-57.26,7.9-72.15,22.64-14.94,14.77-22.4,39.48-22.4,74.11v22.4h-27.35l2.68-5.85c17.04-35.63,31.43-76.21,43.17-121.74ZM520.42,297.3c-10.39-11.82-15.58-28.11-15.58-48.89,0-16.83,4.11-33.84,12.35-51.04,8.24-17.19,19.88-33.04,34.92-47.55,15.04-14.5,32.95-26.95,53.72-37.34,20.77-10.38,43.52-17.01,68.23-19.88-14.69,8.24-28.66,20.95-41.91,38.14-13.26,17.19-23.82,41.19-31.7,71.99-11.46,43.34-23.82,81.31-37.07,113.9-18.27-1.08-32.6-7.52-42.98-19.34Z"/>
</svg>